<svg width="32" height="32" viewBox="0 0 200 200" fill="none" xmlns="http://www.w3.org/2000/svg">
  <defs>
    <linearGradient id="symbolGradient" x1="0%" y1="0%" x2="100%" y2="0%">
      <stop offset="0%" stop-color="#FF6B35" />
      <stop offset="50%" stop-color="#FF8C42" />
      <stop offset="100%" stop-color="#FFD23F" />
    </linearGradient>
  </defs>
  <circle cx="100" cy="100" r="100" fill="#1a1f3a"/>
  <!-- Símbolo simplificado para favicon -->
  <g transform="translate(100, 80) scale(0.6)">
    <path d="M -20,0 Q -25,-8 -25,-15 Q -25,-20 -20,-22 Q -15,-24 -10,-24 Q -5,-24 0,-22 L 0,-18 Q -3,-20 -5,-20 Q -7,-20 -9,-18 Q -11,-16 -11,-13 Q -11,-10 -9,-8 Q -7,-6 -5,-6 L 5,-6 L 5,-1 L -5,-1 Q -7,-1 -9,1 Q -11,3 -11,6 Q -11,9 -9,11 Q -7,13 -5,13 L 0,13 L 0,18 Q -5,15 -10,15 Q -15,15 -20,18 Q -25,21 -25,28 Q -25,35 -20,40 Z" fill="url(#symbolGradient)"/>
    <line x1="-15" y1="-8" x2="-5" y2="-8" stroke="url(#symbolGradient)" stroke-width="1.5" stroke-linecap="round"/>
    <line x1="-15" y1="8" x2="-5" y2="8" stroke="url(#symbolGradient)" stroke-width="1.5" stroke-linecap="round"/>
    <path d="M 0,0 L 0,-15 L 8,-15 L 8,-5 L 18,-5 L 18,-15 L 25,-15 L 25,0 L 20,0 L 20,-10 L 10,-10 L 10,0 Z" fill="url(#symbolGradient)"/>
  </g>
</svg>
